<svg data-v-0dd9719b="" version="1.0" xmlns="http://www.w3.org/2000/svg" xmlns:xlink="http://www.w3.org/1999/xlink" width="100%" height="100%" viewBox="0 0 340.000000 250.000000" preserveAspectRatio="xMidYMid meet" color-interpolation-filters="sRGB" style="margin: auto;"> <rect data-v-0dd9719b="" x="0" y="0" width="100%" height="100%" fill="#fff" fill-opacity="1" class="background"></rect> <rect data-v-0dd9719b="" x="0" y="0" width="100%" height="100%" fill="url(#watermark)" fill-opacity="1" class="watermarklayer"></rect> <g data-v-0dd9719b="" fill="#333" class="icon-text-wrapper icon-svg-group iconsvg" transform="translate(48.38999938964844,95.81593132019043)"><g class="iconsvg-imagesvg" transform="translate(0,5.003971099853516)"><g><rect fill="#333" fill-opacity="0" stroke-width="2" x="0" y="0" width="60" height="48.360186670320545" class="image-rect"></rect> <svg x="0" y="0" width="60" height="48.360186670320545" filtersec="colorsb7205793441" class="image-svg-svg primary" style="overflow: visible;"><svg xmlns="http://www.w3.org/2000/svg" viewBox="0.00047266483306884766 0 70.91464233398438 57.15736389160156"><title>资源 25</title><path d="M65.57 57.08h-4.49a1.06 1.06 0 0 1-1-.56L48.84 38.47c-1.3-2.09-2.61-4.18-3.9-6.28-.29-.47-.43-.55-.77 0q-7.48 12.06-15 24.11a1.45 1.45 0 0 1-1.39.8h-8.75c-.27 0-.6.11-.78-.15s.13-.56.28-.8Q29.87 37.89 41.2 19.67c.95-1.53 1.89-3.06 2.84-4.58.44-.7.57-.7 1 0l15.32 24.6Q65.43 47.83 70.48 56c.17.27.61.54.36.93s-.62.16-.94.16h-4.33zM34.74 27.82c-.12.22-.22.41-.34.6q-2.25 3.63-4.52 7.26c-.43.7-.54.69-1 0-.69-1.1-1.4-2.2-2.05-3.32-.35-.6-.54-.65-.93 0-2.41 3.9-4.9 7.82-7.3 11.74-2.55 4.08-5.11 8.16-7.64 12.26a1.36 1.36 0 0 1-1.32.76H.73c-.83 0-.9-.14-.47-.83Q5.62 47.64 11 39l14.7-23.68c.63-1 .71-1 1.33 0L34.26 27c.18.23.32.53.48.82z" fill="#1d1d1d"></path><path d="M35.45 0c.34 0 .44.34.58.56 1.43 2.28 2.84 4.56 4.25 6.84 1.07 1.72 2.12 3.44 3.21 5.14a1 1 0 0 1 0 1.28c-2.44 3.9-4.85 7.81-7.27 11.72-.64 1-.88 1-1.5.06q-3.43-5.46-6.85-10.93c-.19-.3-.3-.66-.51-.94a.83.83 0 0 1 0-1.07c1.21-1.87 2.34-3.81 3.58-5.66 1.37-2.07 2.6-4.23 3.9-6.35.16-.27.26-.59.61-.65z" fill="#fa6602"></path><path d="M47.52 57.13h-4.49a1.17 1.17 0 0 1-1.17-.61c-1.79-2.89-3.57-5.79-5.39-8.67a1 1 0 0 1 0-1.19c1.52-2.41 3-4.84 4.53-7.26.44-.7.55-.71 1 0l10.54 16.92c.41.67.33.81-.44.81z" fill="#1d1d1d"></path></svg></svg> <!----></g></g> <g transform="translate(67,0)"><g data-gra="path-name" fill-rule="" class="tp-name iconsvg-namesvg" transform="translate(0,0)"><g transform="scale(1)"><g><path d="M3.87-31.59L3.15-33.66 11.74-33.66 11.34-37.62 17.95-37.93 18.45-33.66 26.23-33.66 27-38.25 33.25-37.89 32.45-33.66 40.77-33.66 39.69-28.04Q34.38-28.13 31.32-28.13L31.32-28.13 30.87-25.74 24.84-25.38 25.29-28.13 19.13-28.13 19.39-25.88 12.6-25.43 12.33-28.04Q9.27-28.04 3.69-27.95L3.69-27.95 3.87-31.59ZM27.68-3.01L39.91-3.01Q41.89-3.01 43.11-3.92L43.11-3.92 42.12 2.88 26.19 2.88Q23.76 2.88 22.36 1.48L22.36 1.48Q21.02 0.14 21.02-2.16L21.02-2.16 21.02-10.75 18.9-10.75Q15.25-3.78 11.12 3.19L11.12 3.19 6.25 2.65 2.79 3.82Q7.29-3.65 11.12-10.66L11.12-10.66Q8.23-10.66 2.92-10.57L2.92-10.57 3.1-14.22 2.43-16.34 14.08-16.34 15.71-19.53 7.25-19.39 7.42-23.04 6.84-24.88 36.77-24.88 35.95-19.48Q32.04-19.57 23.4-19.57L23.4-19.57 21.78-16.34 41.09-16.34 40-10.66Q32.17-10.75 27.68-10.75L27.68-10.75 27.68-3.01ZM59.31-31.59L55.84-26.86 48.83-32.04 52.34-36.59 59.31-31.59ZM57.02-21.51L53.69-16.7 45.9-21.69 49.27-26.32 57.02-21.51ZM65.88-5.89L65.88-15.03 62.41-15.03 62.41-5.89 65.88-5.89ZM71.55-28.57L71.1-23.31Q70.47-23.36 69.16-23.36L69.16-23.36 67.14-23.4 67.14-19.57 69.3-19.57Q70.47-19.53 70.88-19.17L70.88-19.17Q71.23-18.81 71.23-17.64L71.23-17.64Q71.06-10.21 70.88-0.85L70.88-0.85 57.38-0.85 57.69-11.12 52.16 2.88 49.14 0.81 46.3 0.58 53.28-15.12 57.78-13.63 57.96-19.71 61.78-19.62 61.78-23.4 59.53-23.36Q58.09-23.36 57.38-23.31L57.38-23.31 57.64-27.04 57.2-28.57 61.78-28.57 61.78-34.92Q61.78-36.67 61.47-37.93L61.47-37.93Q65.47-37.08 67.14-37.35L67.14-37.35 67.14-28.57 71.55-28.57ZM77.35-15.25L81.54-15.25 81.54-20.2Q79.56-20.29 77.4-20.2L77.4-20.2 77.35-15.25ZM81.54-25.38L81.54-30.96 77.53-30.96 77.49-25.38 81.54-25.38ZM72.45-36.13L85.72-36.13Q86.98-36.13 86.98-34.74L86.98-34.74 86.98 4.63 79.83 2.02 81.54 1.08 81.54-10.08Q79.47-10.17 77.27-10.08L77.27-10.08Q77.17-1.8 77.09 2.34L77.09 2.34 74.03 2.25 71.91 4.05Q72.31-22.14 72.45-36.13L72.45-36.13ZM119.92-32.27L103.59-32.27 103.59-29.97 119.92-29.97 119.92-32.27ZM103.59-23.67L119.88-23.67 119.88-25.92Q110.84-26.01 103.59-25.88L103.59-25.88 103.59-23.67ZM128.07-16.38L128.84-16.38Q130.19-16.38 130.05-14.85L130.05-14.85Q129.6-9.67 128.25 4.95L128.25 4.95 120.64 2.29 122.31 1.48 123.57-11.16 121.5-11.21Q117.22-2.25 113.13 4.5L113.13 4.5 109.89 2.61 107.78 2.79Q112.45-5.8 115.06-11.25L115.06-11.25 112.68-11.21Q106.61-3.19 99.9 3.78L99.9 3.78 97.52 1.3 95.49 1.03Q101.34-5.67 105.61-11.16L105.61-11.16 101.88-11.12Q98.28-7.79 94.5-4.68L94.5-4.68 93.15-8.32 91.58-9.27Q97.61-14.63 101.47-18.81L101.47-18.81 96.84-18.81 97.56-36.72 103.59-36.67Q111.6-36.67 124.34-36.59L124.34-36.59Q125.95-36.54 126.5-36.09L126.5-36.09Q127.08-35.64 127.03-34.29L127.03-34.29 126.63-18.81 106.2-18.81 108.99-18.04 107.41-16.43 128.07-16.43 128.07-16.38ZM160.11-7.29L160.11-3.6 165.65-3.6 165.65-7.33 160.11-7.29ZM166.28-29.43L163.8-34.34Q162.31-31.63 161.06-29.43L161.06-29.43 166.28-29.43ZM160.11-20.88L165.65-20.88 165.65-24.48Q161.91-24.48 160.11-24.43L160.11-24.43 160.11-20.88ZM160.11-15.88L160.11-12.29 165.65-12.29 165.65-15.93 160.11-15.88ZM170.91-3.6L178.65-3.6 178.11 1.67Q171.13 1.48 160.11 1.67L160.11 1.67 160.11 3.65 154.62 3.65 154.62-18.63 153.13-16.29 151.65-21.11 150.53-22.32 151.16-23.36Q150.71-23.4 149.76-23.4L149.76-23.4 148.32-23.45 148.32-18.04 151.2-18.9 152.1-13.63 148.32-12.38 148.32 4.77 140.4 1.08 142.34 0.45 142.34-10.44 137.34-8.78 137.29-12.24 136.13-14.49 142.34-16.29 142.34-23.45 139.91-23.4Q138.38-23.4 137.61-23.36L137.61-23.36 137.88-27.09 137.43-28.62 142.34-28.62 142.34-37.3 148.32-37.3 148.32-28.62 152.15-28.62 151.78-24.39Q156.06-31.54 159.7-38.7L159.7-38.7 165.1-36.77 163.89-34.47 168.75-36.67 171.85-30.78 169.02-29.43 177.8-29.43 177.25-24.43Q173.3-24.52 170.91-24.52L170.91-24.52 170.91-20.88 176.81-20.88 176.35-15.84Q172.94-15.93 170.91-15.93L170.91-15.93 170.91-12.29 177.07-12.29 176.58-7.29Q172.98-7.38 170.91-7.38L170.91-7.38 170.91-3.6Z" transform="translate(-2.430000066757202, 38.70000076293945)"></path></g> <!----> <!----> <!----> <!----> <!----> <!----> <!----></g></g> <g data-gra="path-slogan" fill-rule="" class="tp-slogan iconsvg-slogansvg" fill="#333" transform="translate(5,49.650001525878906)"><rect x="0" height="1" y="3.8600001335144043" width="45.23500061035156"></rect> <rect height="1" y="3.8600001335144043" width="45.23500061035156" x="120.98500061035156"></rect> <g transform="translate(48.23500061035156,0)"><g transform="scale(1)"><path d="M5.67-7.13L5.63-7.13L3.66 0L2.44 0L0.19-8.58L1.41-8.58L3.05-1.59L3.09-1.59L5.02-8.58L6.28-8.58L8.20-1.59L8.25-1.59L9.84-8.58L11.11-8.58L8.86 0L7.64 0L5.67-7.13ZM17.86-3.19L17.86-8.58L19.03-8.58L19.03-3.05Q18.89 0.05 15.52 0.14L15.52 0.14Q12.38 0.05 12.23-2.86L12.23-2.86L12.23-8.58L13.41-8.58L13.41-3.19Q13.45-0.84 15.56-0.80L15.56-0.80Q17.86-0.84 17.86-3.19L17.86-3.19ZM21.98-5.06L26.48-5.06L26.48-8.58L27.66-8.58L27.66 0L26.48 0L26.48-3.98L21.98-3.98L21.98 0L20.81 0L20.81-8.58L21.98-8.58L21.98-5.06ZM35.11-3.19L35.11-8.58L36.28-8.58L36.28-3.05Q36.14 0.05 32.77 0.14L32.77 0.14Q29.63 0.05 29.48-2.86L29.48-2.86L29.48-8.58L30.66-8.58L30.66-3.19Q30.70-0.84 32.81-0.80L32.81-0.80Q35.11-0.84 35.11-3.19L35.11-3.19ZM48.33-8.58L45.09-3.47L45.09 0L43.92 0L43.92-3.47L40.69-8.58L42.05-8.58L44.48-4.45L46.97-8.58L48.33-8.58ZM49.55-8.58L50.72-8.58L50.72 0L49.55 0L49.55-8.58ZM54.89-7.59L51.98-7.59L51.98-8.58L58.92-8.58L58.92-7.59L56.02-7.59L56.02 0L54.89 0L54.89-7.59ZM65.63-3.19L65.63-8.58L66.80-8.58L66.80-3.05Q66.66 0.05 63.28 0.14L63.28 0.14Q60.14 0.05 60-2.86L60-2.86L60-8.58L61.17-8.58L61.17-3.19Q61.22-0.84 63.33-0.80L63.33-0.80Q65.63-0.84 65.63-3.19L65.63-3.19ZM68.77-8.58L69.94-8.58L69.94 0L68.77 0L68.77-8.58Z" transform="translate(-0.1875, 8.578125)"></path></g></g></g></g></g><defs v-gra="od"></defs></svg>